<?xml version="1.0" encoding="utf-8"?>
<!-- Generator: Adobe Illustrator 19.2.0, SVG Export Plug-In . SVG Version: 6.00 Build 0)  -->
<svg version="1.1" id="Livello_1" xmlns="http://www.w3.org/2000/svg" xmlns:xlink="http://www.w3.org/1999/xlink" x="0px" y="0px"
	 viewBox="0 0 130 20" style="enable-background:new 0 0 130 20;" xml:space="preserve">
<style type="text/css">
	.st0{fill:#EF6E30;}
</style>
<g>
	<path class="st0" d="M13.5,15.6c0,0.8-0.2,1.5-0.6,2c-0.4,0.5-0.9,1-1.6,1.3s-1.3,0.5-2.1,0.7c-0.8,0.1-1.5,0.2-2.3,0.2
		c-1.2,0-2.5-0.2-3.7-0.5C2,18.9,0.9,18.4,0,17.8l0.9-1.7c1,0.6,2,1.1,3,1.5c1,0.3,2,0.5,3,0.5c3,0,4.5-0.8,4.5-2.4
		c0-0.4-0.1-0.7-0.4-0.9c-0.3-0.2-0.6-0.4-1-0.6c-0.4-0.2-0.9-0.3-1.5-0.4c-0.5-0.1-1.1-0.2-1.7-0.3c-0.8-0.1-1.5-0.2-2.3-0.4
		c-0.8-0.1-1.4-0.4-2.1-0.7c-0.6-0.3-1.1-0.7-1.5-1.2c-0.4-0.5-0.6-1.1-0.6-1.9c0-0.7,0.2-1.3,0.5-1.8c0.3-0.5,0.8-0.9,1.4-1.3
		C3,6,3.7,5.8,4.5,5.6s1.6-0.2,2.4-0.2c1.2,0,2.3,0.1,3.2,0.4c1,0.3,1.8,0.7,2.6,1.2l-0.8,1.6c-0.8-0.5-1.6-0.9-2.4-1.2
		C8.8,7.2,7.9,7.1,6.9,7.1c-0.4,0-0.9,0-1.4,0.1C5,7.3,4.5,7.4,4.1,7.6S3.3,8,3,8.3S2.5,9,2.5,9.4c0,0.4,0.1,0.7,0.4,0.9
		c0.3,0.2,0.6,0.4,1,0.6c0.4,0.2,0.9,0.3,1.5,0.4c0.5,0.1,1.1,0.2,1.7,0.2c0.7,0.1,1.5,0.2,2.3,0.4c0.8,0.1,1.5,0.4,2.1,0.6
		s1.1,0.7,1.5,1.2C13.3,14.2,13.5,14.8,13.5,15.6z"/>
	<path class="st0" d="M33.7,12.6c0,1.1-0.2,2-0.5,2.9c-0.3,0.9-0.8,1.6-1.5,2.2c-0.6,0.6-1.4,1.1-2.3,1.5c-0.9,0.4-1.9,0.5-3,0.5
		c-1.1,0-2-0.2-2.9-0.5c-0.9-0.4-1.6-0.8-2.3-1.5c-0.6-0.6-1.1-1.4-1.5-2.2c-0.3-0.9-0.5-1.8-0.5-2.9c0-1,0.2-2,0.5-2.9
		c0.3-0.9,0.8-1.7,1.5-2.3s1.4-1.1,2.3-1.5c0.9-0.4,1.9-0.5,2.9-0.5c1.1,0,2.1,0.2,3,0.5c0.9,0.4,1.6,0.9,2.3,1.5
		c0.6,0.6,1.1,1.4,1.5,2.3C33.5,10.6,33.7,11.6,33.7,12.6z M31.7,12.6c0-0.8-0.1-1.5-0.3-2.2c-0.2-0.7-0.6-1.2-1-1.7
		c-0.5-0.5-1-0.9-1.6-1.2c-0.6-0.3-1.4-0.4-2.2-0.4c-0.8,0-1.5,0.1-2.2,0.4c-0.6,0.3-1.2,0.7-1.6,1.2c-0.4,0.5-0.8,1.1-1,1.7
		s-0.3,1.4-0.3,2.2s0.1,1.5,0.3,2.2c0.2,0.7,0.6,1.2,1,1.7c0.4,0.5,1,0.9,1.6,1.1s1.4,0.4,2.2,0.4c0.8,0,1.5-0.1,2.2-0.4
		s1.2-0.7,1.6-1.1c0.5-0.5,0.8-1.1,1-1.7C31.6,14.1,31.7,13.4,31.7,12.6z"/>
	<path class="st0" d="M50.1,19.4h-8.2v-1.7h3.1V1.9h-3.1V0.2H47v17.5h3.1V19.4z"/>
	<path class="st0" d="M69.5,19.4h-8.2v-1.7h3.1V7.4h-3.1V5.7h5.1v12h3.1V19.4z M66.8,3h-2.7V0.2h2.7V3z"/>
	<path class="st0" d="M91,19.4h-2v-1.3c-0.6,0.5-1.2,0.9-1.9,1.2c-0.7,0.3-1.4,0.4-2.1,0.4c-1.1,0-2.1-0.2-2.9-0.5
		c-0.9-0.4-1.6-0.8-2.2-1.5c-0.6-0.6-1-1.4-1.4-2.3c-0.3-0.9-0.5-1.8-0.5-2.9c0-1,0.2-2,0.5-2.9c0.3-0.9,0.8-1.6,1.4-2.3
		c0.6-0.6,1.3-1.1,2.2-1.5c0.9-0.4,1.8-0.5,2.9-0.5c0.7,0,1.4,0.1,2.1,0.4C87.8,6,88.4,6.4,89,7v-5H78V0.2h13V19.4z M89,8.9
		c-0.6-0.6-1.2-1.1-1.9-1.4c-0.7-0.3-1.4-0.4-2.2-0.4c-0.8,0-1.5,0.1-2.1,0.4c-0.6,0.3-1.1,0.7-1.5,1.2c-0.4,0.5-0.7,1.1-0.9,1.7
		c-0.2,0.7-0.3,1.4-0.3,2.2s0.1,1.5,0.3,2.2c0.2,0.7,0.5,1.2,0.9,1.7c0.4,0.5,0.9,0.9,1.5,1.2s1.3,0.4,2.1,0.4
		c1.5,0,2.9-0.6,4.1-1.8V8.9z"/>
	<path class="st0" d="M111.6,12.6c0,1.1-0.2,2-0.5,2.9c-0.3,0.9-0.8,1.6-1.5,2.2c-0.6,0.6-1.4,1.1-2.3,1.5c-0.9,0.4-1.9,0.5-3,0.5
		c-1.1,0-2-0.2-2.9-0.5c-0.9-0.4-1.6-0.8-2.3-1.5c-0.6-0.6-1.1-1.4-1.5-2.2c-0.3-0.9-0.5-1.8-0.5-2.9c0-1,0.2-2,0.5-2.9
		c0.3-0.9,0.8-1.7,1.5-2.3c0.6-0.6,1.4-1.1,2.3-1.5c0.9-0.4,1.9-0.5,2.9-0.5c1.1,0,2.1,0.2,3,0.5c0.9,0.4,1.6,0.9,2.3,1.5
		c0.6,0.6,1.1,1.4,1.5,2.3C111.4,10.6,111.6,11.6,111.6,12.6z M109.6,12.6c0-0.8-0.1-1.5-0.3-2.2c-0.2-0.7-0.6-1.2-1-1.7
		c-0.5-0.5-1-0.9-1.6-1.2c-0.6-0.3-1.4-0.4-2.2-0.4c-0.8,0-1.5,0.1-2.2,0.4c-0.6,0.3-1.2,0.7-1.6,1.2c-0.4,0.5-0.8,1.1-1,1.7
		c-0.2,0.7-0.3,1.4-0.3,2.2s0.1,1.5,0.3,2.2c0.2,0.7,0.6,1.2,1,1.7c0.4,0.5,1,0.9,1.6,1.1s1.4,0.4,2.2,0.4c0.8,0,1.5-0.1,2.2-0.4
		c0.6-0.3,1.2-0.7,1.6-1.1c0.5-0.5,0.8-1.1,1-1.7C109.5,14.1,109.6,13.4,109.6,12.6z"/>
	<path class="st0" d="M130,19.4h-2V11c0-1.2-0.3-2.2-0.8-2.9c-0.5-0.7-1.4-1-2.6-1c-0.7,0-1.4,0.2-2,0.5C122,8,121.5,8.4,121,9
		c-0.4,0.6-0.7,1.2-1,2c-0.2,0.7-0.3,1.5-0.3,2.3v6.1h-2V5.7h2v3.4c1-2.5,2.7-3.8,5.2-3.8c3.4,0,5.1,1.9,5.1,5.6V19.4z"/>
</g>
</svg>
