<svg class="nebulab-logo" width="145" height="45" viewBox="0 0 148 45" xmlns="http://www.w3.org/2000/svg" role="img">
  <title>nebulab logo</title>
  <path d="M56.2,31.2V19.1h3.1v1a5.61,5.61,0,0,1,3.4-1.2,5.38,5.38,0,0,1,4.2,1.9A6,6,0,0,1,68.1,25v6.2H65V24.8a3.3,3.3,0,0,0-.7-2.3,2.67,2.67,0,0,0-1.8-.7,3.7,3.7,0,0,0-2.9,1.5v7.9Z" fill="#fff"/>
  <path d="M81.5,29.3a6.65,6.65,0,0,1-5,2.2,6,6,0,0,1-6.3-6.3c0-3.4,2.3-6.3,5.9-6.3,3.3,0,5.7,2.8,5.7,6.2a2.77,2.77,0,0,1-.1.9H73.3a3.19,3.19,0,0,0,3.3,2.9,4.07,4.07,0,0,0,3-1.4Zm-3-5.7a2.4,2.4,0,0,0-2.4-2.1,2.69,2.69,0,0,0-2.6,2.1Z" fill="#fff"/>
  <path d="M84.1,31.2V13.5h3.2V20a5.54,5.54,0,0,1,3.4-1.1,6,6,0,0,1,5.9,6.3,6.71,6.71,0,0,1-1.5,4.2,6.33,6.33,0,0,1-4.6,2,5.43,5.43,0,0,1-3.4-1.2v1ZM87.3,27a3.5,3.5,0,0,0,2.9,1.5,3.18,3.18,0,0,0,3.2-3.3,3.16,3.16,0,0,0-3.1-3.3,3.84,3.84,0,0,0-3,1.5Z" fill="#fff"/><path d="M110.4,19.1V31.2h-3.1v-1a5,5,0,0,1-3.3,1.2,5.34,5.34,0,0,1-4.1-1.9,5.8,5.8,0,0,1-1.2-4V19.1h3.2v6.5a2.93,2.93,0,0,0,.6,2.1,2.57,2.57,0,0,0,1.8.7,3.49,3.49,0,0,0,2.8-1.5V19h3.3Z" fill="#fff"/><path d="M116.9,31.2h-3.2V13.5h3.2Z" fill="#fff"/>
  <path d="M131.7,31.2h-3.1v-1a5.23,5.23,0,0,1-3.4,1.2,6.33,6.33,0,0,1-4.6-2,6.71,6.71,0,0,1-1.5-4.2,6,6,0,0,1,5.9-6.3,5.13,5.13,0,0,1,3.5,1.2v-1h3.1V31.2Zm-3.2-7.8a3.69,3.69,0,0,0-3-1.5,3.16,3.16,0,0,0-3.1,3.3,3.18,3.18,0,0,0,3.2,3.3,3.5,3.5,0,0,0,2.9-1.5Z" fill="#fff"/><path d="M135,31.2V13.5h3.2V20a5.54,5.54,0,0,1,3.4-1.1,6,6,0,0,1,5.9,6.3,6.71,6.71,0,0,1-1.5,4.2,6.33,6.33,0,0,1-4.6,2,5.43,5.43,0,0,1-3.4-1.2v1Zm3.2-4.2a3.5,3.5,0,0,0,2.9,1.5,3.18,3.18,0,0,0,3.2-3.3,3.16,3.16,0,0,0-3.1-3.3,3.84,3.84,0,0,0-3,1.5V27Z" fill="#fff"/>
  <path d="M22.9,0A22.5,22.5,0,1,0,45.4,22.5,22.53,22.53,0,0,0,22.9,0ZM11.1,34.2l2.7-10,4.9,2.5,2.5,4.9Zm15.4-.3-5-9.9h0l-9.9-5,23.1-8.2h0Z" fill="#fff"/>
</svg>
