<?xml version="1.0" encoding="utf-8"?>
<!-- Generator: Adobe Illustrator 19.2.0, SVG Export Plug-In . SVG Version: 6.00 Build 0)  -->
<svg version="1.1" id="Livello_1" xmlns="http://www.w3.org/2000/svg" xmlns:xlink="http://www.w3.org/1999/xlink" x="0px" y="0px"
	 viewBox="0 0 140 21" style="enable-background:new 0 0 140 21;" xml:space="preserve">
<style type="text/css">
	.st0{fill:#02060C;}
	.st1{fill:#109BC9;}
	.st2{opacity:0.8;}
</style>
<g>
	<path class="st0" d="M44,19.6h-2.7c-0.3,0-0.5-0.2-0.5-0.5V8.1c0-2.8-1.1-3.9-3.6-3.9c-1.3,0-2.8,0.1-3.6,0.2v14.6
		c0,0.3-0.2,0.5-0.5,0.5h-2.7c-0.3,0-0.5-0.2-0.5-0.5V3c0-0.9,0.3-1.1,1.1-1.2c1.4-0.2,4.3-0.4,5.8-0.4c4.9,0,7.7,1.6,7.7,6.8v10.9
		C44.5,19.4,44.2,19.6,44,19.6 M59.4,19.4c0.4,0,0.5-0.2,0.5-0.5v-1.6c0-0.3-0.2-0.5-0.5-0.5H54c-1.5,0-2.1-0.5-2.1-2.1v-3.1h7.2
		c0.3,0,0.5-0.2,0.5-0.5V9.4c0-0.3-0.2-0.5-0.5-0.5h-7.2V6.3c0-1.6,0.6-2.1,2.1-2.1h5.4c0.3,0,0.5-0.2,0.5-0.5V2.2
		c0-0.3-0.1-0.5-0.5-0.5c-0.8-0.1-1.9-0.3-5-0.3c-3.4,0-6.1,0.9-6.1,5v8.5c0,4.1,2.7,5,6.1,5C57.5,19.8,58.6,19.6,59.4,19.4
		 M69.3,19.8c4.9,0,8-1.4,8-5.2v-0.4c0-1.8-0.9-3.1-2.6-3.7c1.6-0.6,2.4-2.1,2.4-3.7V6.3c0-3.7-3.4-4.9-8.1-4.9
		c-2.1,0-3.7,0.1-4.4,0.2c-0.8,0.1-1.2,0.4-1.2,1.3v15.3c0,0.9,0.4,1.2,1.3,1.3C65.6,19.7,67.2,19.8,69.3,19.8 M73.7,6.8
		c0,1.2-0.7,2.3-3.1,2.3h-3.4V4.2c0.6,0,1.3,0,1.9,0c3.4,0,4.6,0.6,4.6,2.3V6.8z M73.8,14.5c0,1.7-1.1,2.5-4.4,2.5
		c-0.6,0-1.5,0-2.2,0v-5.3h3.4c2.5,0,3.2,1.2,3.2,2.6V14.5z M93.6,19.4c1-0.1,1.4-0.5,1.4-1.5V2c0-0.3-0.2-0.5-0.5-0.5h-2.6
		c-0.3,0-0.5,0.2-0.5,0.5v14.8c-1,0.1-2.6,0.2-3.6,0.2c-2.9,0-3.5-1.3-3.5-4V2c0-0.3-0.2-0.5-0.5-0.5h-2.6c-0.3,0-0.5,0.2-0.5,0.5
		V13c0,5.2,3,6.8,7.2,6.8C89.4,19.8,92.7,19.5,93.6,19.4 M108.4,19.6c0.3,0,0.5-0.2,0.5-0.4V19c0-0.2-0.2-0.4-0.5-0.4h-6
		c-1.3,0-2-0.2-2-1.7V2c0-0.2-0.2-0.5-0.4-0.5h-0.3c-0.3,0-0.4,0.2-0.4,0.5v14.9c0,2,1.2,2.7,3.2,2.7H108.4 M124.7,19.7
		c0.3,0,0.4-0.1,0.4-0.4c0-0.1,0-0.2-0.1-0.2l-5.4-16.5c-0.2-0.7-0.8-1.2-1.7-1.2c-0.9,0-1.5,0.5-1.7,1.2L110.9,19
		c0,0.1,0,0.1,0,0.2c0,0.2,0.1,0.4,0.4,0.4h0.3c0.2,0,0.4-0.2,0.4-0.3l2.2-6.6h7.6l2.2,6.6c0.1,0.2,0.2,0.3,0.4,0.3H124.7
		 M121.5,11.7h-7l2.9-8.8c0.1-0.3,0.2-0.5,0.6-0.5c0.4,0,0.5,0.2,0.6,0.5L121.5,11.7z M132.7,19.7c3.3,0,7.4-0.8,7.4-5.1v-0.4
		c0-2.2-1.2-3.6-3.2-4.1c2-0.6,3.1-2,3.1-4V5.8c0-3.6-3.6-4.4-7.3-4.4c-1.3,0-2.9,0.1-4,0.1c-0.3,0-0.5,0.2-0.5,0.5v17.1
		c0,0.3,0.2,0.4,0.5,0.5C130,19.7,131.4,19.7,132.7,19.7 M138.8,6.1c0,1.8-0.9,3.5-4.6,3.5h-4.8V2.5c0.9,0,2.1-0.1,3.3-0.1
		c3.1,0,6.1,0.5,6.1,3.4V6.1z M138.9,14.7c0,3.5-3,4.1-6.2,4.1c-1.3,0-2.2-0.1-3.3-0.1v-8h4.8c3.7,0,4.7,1.7,4.7,3.6V14.7z"/>
	<g>
		<polygon class="st1" points="6.9,14.3 0.1,21.1 9.1,18.7 		"/>
		<g>
			<g class="st2">
				<g>
					<polygon class="st1" points="2.5,12.1 0.1,21.1 6.9,14.3 					"/>
				</g>
			</g>
		</g>
		<polygon class="st1" points="21.3,0 9.4,11.9 14,20.9 		"/>
		<g>
			<g class="st2">
				<g>
					<polygon class="st1" points="0.5,7.4 9.4,11.9 21.3,0 					"/>
				</g>
			</g>
		</g>
	</g>
</g>
</svg>
