<svg class="soliton-logo" width="93" height="23" viewBox="0 0 93 23" xmlns="http://www.w3.org/2000/svg" role="img">
  <title>soliton logo</title>
  <path d="M1.92,18a6.19,6.19,0,0,0,4,1.44c1.06,0,1.87-.51,1.87-1.23C7.8,16,.71,16.81.71,12.13.71,9.34,3.43,7.6,6.32,7.6a9.12,9.12,0,0,1,5,1.47L9.43,11.89a5,5,0,0,0-2.81-1c-1.09,0-2,.42-2,1.17,0,1.89,7.09,1.14,7.09,6.18,0,2.79-2.75,4.5-5.83,4.5A10.17,10.17,0,0,1,0,20.8Z" style="fill:#fff"/><path d="M21.33,7.6a7.58,7.58,0,1,1,0,15.15,7.58,7.58,0,1,1,0-15.15Zm0,11.55a3.81,3.81,0,0,0,3.86-4,3.87,3.87,0,1,0-7.73,0A3.81,3.81,0,0,0,21.33,19.15Z" style="fill:#fff"/><path d="M35.76,22.45H31.83V.53h3.92Z" style="fill:#fff"/>
  <path d="M41.65.25a2.51,2.51,0,0,1,2.57,2.49,2.57,2.57,0,0,1-5.13,0A2.51,2.51,0,0,1,41.65.25Zm2,22.2H39.68V7.9h3.92Z" style="fill:#fff"/>
  <path d="M58.55,22.45a9.73,9.73,0,0,1-2.45.3A6,6,0,0,1,51,20.65a6.79,6.79,0,0,1-1.09-4.35V11.2H45.87V7.9h4.08v-4h3.93v4H58.7v3.3H53.87v5.55a2.66,2.66,0,0,0,.48,1.83,2.5,2.5,0,0,0,2,.72,9.68,9.68,0,0,0,1.6-.15Z" style="fill:#fff"/>
  <path d="M68,7.6a7.58,7.58,0,1,1-7.79,7.59A7.6,7.6,0,0,1,68,7.6Zm0,11.55a3.81,3.81,0,0,0,3.86-4,3.87,3.87,0,1,0-7.73,0A3.81,3.81,0,0,0,68,19.15Z" style="fill:#fff"/>
  <path d="M78.51,22.45V7.9h3.77V9.07A6.48,6.48,0,0,1,86.42,7.6a6.62,6.62,0,0,1,5.07,2.34c1,1.14,1.51,2.61,1.51,5.1v7.41H89.07V14.74A3.5,3.5,0,0,0,88.2,12,3.1,3.1,0,0,0,86,11.2,4.69,4.69,0,0,0,82.43,13v9.45Z" style="fill:#fff"/>
  <rect y="0.53" width="29" height="3" style="fill:#44c8c3"/>
</svg>
